/* XPM */
static char *_9ec0e023a7c4fd1b740f28e9d300fc4[] = {
/* columns rows colors chars-per-pixel */
"64 64 256 2 ",
"   c #6F3B07",
".  c #723F0C",
"X  c #74410E",
"o  c #7B4C1C",
"O  c #774614",
"+  c #7F5224",
"@  c #83551F",
"#  c #815325",
"$  c #875B2A",
"%  c #885D33",
"&  c #8C632C",
"*  c #91692D",
"=  c #8C643B",
"-  c #8A6136",
";  c #916A3E",
":  c #936B34",
">  c #9B7538",
",  c #997546",
"<  c #9C7B54",
"1  c #9C7956",
"2  c #8F6A42",
"3  c #A27E46",
"4  c #A07D57",
"5  c #BB8D1A",
"6  c #B98B14",
"7  c #BE901E",
"8  c #BD9123",
"9  c #BF962A",
"0  c #A58037",
"q  c #C19426",
"w  c #C1962C",
"e  c #C39B2E",
"r  c #C29A33",
"t  c #C39C39",
"y  c #C9A43A",
"u  c #C0901A",
"i  c #A88746",
"p  c #AD914C",
"a  c #B5974E",
"s  c #A2825E",
"d  c #A78854",
"f  c #AE9058",
"g  c #B69955",
"h  c #BDA35C",
"j  c #BEA254",
"k  c #BEA04F",
"l  c #A68968",
"z  c #B59A64",
"x  c #AD9375",
"c  c #AF9879",
"v  c #B39A7C",
"b  c #B19578",
"n  c #A98D71",
"m  c #BBA367",
"M  c #BCA575",
"N  c #C69F40",
"B  c #C5A243",
"V  c #C9A442",
"C  c #CCAB43",
"Z  c #C9A64B",
"A  c #C9A74B",
"S  c #CFB04A",
"D  c #D2B44B",
"F  c #D4B548",
"G  c #CCAA53",
"H  c #C3AB5D",
"J  c #CEAD5C",
"K  c #C3A757",
"L  c #CEB35D",
"P  c #C7B059",
"I  c #D5B953",
"U  c #D6B957",
"Y  c #D1AE4A",
"T  c #C4AB67",
"R  c #CAB36A",
"E  c #CCB565",
"W  c #D1B56B",
"Q  c #D3BC6B",
"!  c #D2BB65",
"~  c #C2AC70",
"^  c #C6B17D",
"/  c #CDBA7C",
"(  c #CAB574",
")  c #D5BC79",
"_  c #D4BA74",
"`  c #DCC45C",
"'  c #DCC357",
"]  c #E2CA5E",
"[  c #D5C36D",
"{  c #DDC96D",
"}  c #DCC566",
"|  c #D5C373",
" . c #DCCB74",
".. c #D8C579",
"X. c #DED07A",
"o. c #E2CB67",
"O. c #E5D468",
"+. c #E1CD76",
"@. c #E3D275",
"#. c #E3D47D",
"$. c #EADC7B",
"%. c #E9DA77",
"&. c #EEE17C",
"*. c #EEE274",
"=. c #F1E57A",
"-. c #F3E97D",
";. c #B49C81",
":. c #B9A488",
">. c #BEA993",
",. c #BCA690",
"<. c #C1AC8A",
"1. c #CAB987",
"2. c #D3BE85",
"3. c #C2AC94",
"4. c #C2AF99",
"5. c #C8B698",
"6. c #D1BF9E",
"7. c #CCBDAA",
"8. c #C9B8A4",
"9. c #D0BFAC",
"0. c #D5C282",
"q. c #D9C384",
"w. c #DDCD84",
"e. c #D4C58C",
"r. c #DBC48A",
"t. c #DBCA8D",
"y. c #DCCB93",
"u. c #DECC9A",
"i. c #D6C796",
"p. c #DED19C",
"a. c #DED693",
"s. c #D7CA8F",
"d. c #E1CE85",
"f. c #E5D482",
"g. c #EADC83",
"h. c #E5DA8B",
"j. c #E8DA8B",
"k. c #E1CE9C",
"l. c #E1CE91",
"z. c #E3D394",
"x. c #E2D49B",
"c. c #E4DA9C",
"v. c #EADD9C",
"b. c #E7DB94",
"n. c #EDE284",
"m. c #EDE38B",
"M. c #EEE88A",
"N. c #F1E584",
"B. c #F5EC85",
"V. c #F0E58B",
"C. c #F4EC8B",
"Z. c #F8EF8A",
"A. c #F6F08C",
"S. c #F8F08B",
"D. c #EDE393",
"F. c #ECE49D",
"G. c #EFE896",
"H. c #F4EC94",
"J. c #F3EC9B",
"K. c #F4EA94",
"L. c #F7F193",
"P. c #F8F193",
"I. c #F6F19B",
"U. c #F9F09A",
"Y. c #CEC3A8",
"T. c #D5C9A7",
"R. c #DDD2AC",
"E. c #DED2A4",
"W. c #CFC2B0",
"Q. c #D2C5B4",
"!. c #D9CCBB",
"~. c #D6CBB7",
"^. c #DDD4B7",
"/. c #E0CFA3",
"(. c #E2D4A4",
"). c #E3D6AC",
"_. c #E5DAAB",
"`. c #EADEAC",
"'. c #E7DBA4",
"]. c #E5DBB4",
"[. c #E9DDB2",
"{. c #E5DCBA",
"}. c #E5DBB8",
"|. c #EBE3A4",
" X c #EBE2AC",
".X c #EEE9AB",
"XX c #EBE4A5",
"oX c #F3EDA3",
"OX c #F3ECAB",
"+X c #F8EFAA",
"@X c #F6F2A4",
"#X c #F6F2AC",
"$X c #F8F3AC",
"%X c #F8F1A5",
"&X c #EBE3B4",
"*X c #EBE4BC",
"=X c #EEEABC",
"-X c #ECE7B8",
";X c #F2ECB3",
":X c #F1ECBC",
">X c #F6F3B3",
",X c #F5F3BB",
"<X c #F8F5BB",
"1X c #F9F4B3",
"2X c #DACFC1",
"3X c #DDD4C6",
"4X c #E2DAC3",
"5X c #E3DDCD",
"6X c #E5DBC5",
"7X c #E3DCD2",
"8X c #E6E1C3",
"9X c #EBE4C5",
"0X c #EEE9C5",
"qX c #EBE5CB",
"wX c #EDE9CB",
"eX c #E7E1CC",
"rX c #F1ECC3",
"tX c #F1ECCB",
"yX c #F0E6C6",
"uX c #F6F3C3",
"iX c #F9F5C3",
"pX c #F5F2CD",
"aX c #F9F6CB",
"sX c #F9F8CE",
"dX c #F9F8C3",
"fX c #E6E2D6",
"gX c #EBE6D4",
"hX c #EEEAD3",
"jX c #EEEBDB",
"kX c #E8E4DB",
"lX c #F1ECD5",
"zX c #F2EEDB",
"xX c #F5F3D4",
"cX c #F9F6D1",
"vX c #F9F8D3",
"bX c #F5F3DC",
"nX c #F8F6DB",
"mX c #F9F9DC",
"MX c #F7F9D7",
"NX c #EDECE5",
"BX c #EEEFE9",
"VX c #F1EEE3",
"CX c #F2EFE9",
"ZX c #F5F3E4",
"AX c #F8F7E3",
"SX c #FAF9E4",
"DX c #F5F4EB",
"FX c #F8F7EB",
"GX c #FAFAEC",
"HX c #F7F8EB",
"JX c #F6F6F2",
"KX c #F8F7F4",
"LX c #FAFBF4",
"PX c #FEFEFE",
"IX c #F7F9F2",
"UX c #EFF0E2",
/* pixels */
"PXPXPXPXPXPXPXPXPXPXPXPXPXPXPXPXPXPXPXPXPXPXPXPXHXlX&Xp.0.Q R h h g g z M 5.2XBXPXPXPXPXLXPXPXPXPXPXPXPXPXPXPXPXPXPXPXPXPXPXPXPX",
"PXPXPXPXPXPXPXPXPXPXPXPXPXPXPXPXPXPXPXPXPXSX:Xv.f.X.w.a._.].].{.].^.R.1.M d > : < >.fXPXPXPXPXPXPXPXPXPXPXPXPXPXPXPXPXPXPXPXPXPX",
"PXPXPXPXPXPXPXPXPXPXPXPXPXPXPXPXPXPXLXsXG.n.m..XpXHXPXIXAXIXPXPXPXPX^.IXPXDXUX!.:.; O ; 8.JXPXPXPXPXPXPXPXPXPXPXPXPXPXPXPXPXPXPX",
"PXPXPXPXPXPXPXPXPXPXPXPXPXPXPXPXLXaXH.C.;XAXPXLXPXxXb.h.w.w.GXPXPXIXh eXgXp 4XPX!.gX7Xx o # 4.LXPXPXPXPXPXPXPXPXPXPXPXPXPXPXPXPX",
"PXPXPXPXPXPXPXPXPXPXPXPXPXPXPXMXL.A.<XLXPXmXOXoXPXF.XXPXLXw.bXPXPXPXe.R.1.a T.4X> BX~.~.NX3.o $ W.PXPXPXPXPXPXPXPXPXPXPXPXPXPXPX",
"PXPXPXPXPXPXPXPXPXPXPXPXPXLX1XA.<XLXPXSXI.C.oXGXPX;XF.AXrXX.zXPXPXPXE.j 1.T.^ z T.GX: 3 s 7.NXn . 4 CXPXKXPXPXPXPXPXPXPXPXPXPXPX",
"PXPXPXPXPXPXPXPXPXPXPXPXnXA.U.SXPXsXsXLXSXMXJ.LXPXAXD.F.|.=XHXIXIXLXDXE.jXhXg M PX5.3 M v x JXPX3X% o !.PXPXPXPXPXPXPXPXPXPXPXPX",
"PXPXPXPXPXPXPXPXPXPXPXuX-.1XPXGX@X@XL.sXPXPXI.sXPXHXpX0X=X9X&X].].R.R.{.^.4XeXDXPXz d <.l fXPXLXPXPXv   >.PXPXPXPXPXPXPXPXPXPXPX",
"PXPXPXPXPXPXPXPXLXPXOX=.aXPXGXC.$XSXL.aXPXPXxXuXrX:XxXZXFXGXPXPXPXPXqX8XUX{.T.6.~.fX~.z :.PXPXPXPX8.2XQ.  x PXPXPXPXPXPXPXPXPXPX",
"PXPXPXPXPXPXPXPXPXXX%.xXPX;XLXuXH.I.sXPXSXuXpXMXLXPXPXPXPXPXPXPXLXPXPXs.gXPXPXIX4X6.Y.5XkXPXPXPXPXQ.# Q.7X. n PXPXPXPXPXPXPXPXPX",
"PXPXPXPXPXPXPXPXXX%.nXPXAXn.GXPXH.<XPXuXuXSXPXPXPXPXPXPXPXPXPXPXwXZXPXeXh hXPXLXPXPXfX5.6.BXPXPXPXBX- X ,.2X. x PXPXPXPXPXPXPXPX",
"PXPXPXPXPXPXPX=Xo.xXFX;XrXn.HXPXHX<X,XSXPXPXPXPXPXPXPXPXPXPXPXPXhX'.PXLX/ T DXPXLXLXPXPX5Xv !.PXBX# l kXl PX3X  ,.PXPXPXPXPXPXPX",
"PXPXPXPXPXPXtX` =XPX=Xj.m.%.;XPXiXaXLXPXPXPXPXPXPXPXPXPXPXPXPXPXPXw._.PX{./ 2.IXPXPXPXLXPXLX3.4.fXn KXPXPX,.7.W.  ~.PXPXPXPXPXPX",
"PXPXPXPXPXFX] v.PXbXPXPXPXxX.X;XpXPXPXPXPXPXPXPXPXPXPXPXPXPXPXPXPX0X[ _.8X].2.h ^.PXPXLXPXPXPXW.:.PXPXBXs % + 7X;.o BXPXPXPXPXPX",
"PXPXPXPXPXd.{ PX&X' XXPXPXPX,XnXPXPXPXGXMXGXPXPXPXPXPXPXPXPXPXPXPXZX .! | s.8XH a ^ ZXPXPXPXPXPX2Xx PXl O s W.= BX= 1 PXPXPXPXPX",
"PXPXPXPX*XI bXzX} &X` @.bX;XbXPXPXSX%XA.L.P.+XSXPXPXPXPXPXPXPXPXPXPX_...s.e.s.R H a m 5.LXPXPXKXPX2Xc NXJX4 l O 8.kX  7.PXPXPXPX",
"PXPXPXGXU z.PXI v.b.v.tX.XxXPXPXAXV.A.;XMX>XZ.A.AXPXPXPXPXPXPXPXPXLX*Xc.bX9X].R.P h k i eXPXPXPXLXPXQ.>.PXb X 4.PXPXx # KXPXPXPX",
"PXPXPX(.D HXPXx.I ! KXxX-XPXPXPXG.-.oXPX>XvXdXA.I.PXPXPXPXPXPXPXlXh.h.HXPXPXZXhXH h h p T.PXLXPXPXPX8.l 2X:.Q.PXv 1 NXo ,.PXPXPX",
"PXPXKXY (.GXt.AXzX{ -X XLXLXPXnX&.N.C.FX1XvX<XA.L.mXPXPXPXPXPXPXD.h.bXZXxXZXLXPX{.8X( a ^ NXPXPXPXPX: 2 l KX3X# = 8.PX:.# JXPXPX",
"PXPX).y PXq.S wXl.AX XzXPXPXPXpX$.N.V.GXiXsXsXL.A.sXPXPXPXPXPXxXm.$.h.@.x.c.E.].wXPXgXa ^ 1.PXPXPXIX, + 2 8.4.= PXPXPXCXo 4.PXLX",
"PXPXG r.ZXS PXAXD &X&XPXPXPXPXxX%.n.N.LXH.B.LX$XZ.MXPXLXPXPXmXG.F.;X&XXXPXPXLXZXgXUXPX/ e.z 8XPXPXLX< $ & 4 2X= 7XkX1 Q.v = PXPX",
"PXhXq bX/.e DX).| [.ZXPXPXPXPXGX&.*.G.IXOX1XGXU.L.GXPXPXPX,XOXOX;XZXPXPXPXPXPXPXPXPXUX/ 1.a z UXPXJXi & $ ; 4.3.O # s NX7XO 5XPX",
"PXr.B PXZX_ y V _.[.PXLXPXPXPXPXrXO.D.pXMXuXL.B.aXPXPXPXsXM.N.H.M.F.=XxXGXPXPXPXPXPXGXR 2.h ~ BXPXCX3 : & & s fXQ.7XNXW.KX- ;.PX",
"PXA ) PXPXPXhXhX[.tXPXPXPXPXPXPXPX,X%.&.G.=.B.iXLXPXPXPX$XA.oXoXJ.M.n.=XLXLXHX[.w.0.E./ / T a <.DXeX> > : $ 1 Q.2X1 =   2X:.= PX",
"ZXw {.PXKXLXPXPXk.LXPXPXPXPXPXPXPXPXAXrX;XiXSXPXPXPXPXPXMXsXGXLXIXMXD.F.LXlX-X[.w.p...P eXi.a h gX6.> 0 > & ; 3.:.1 s b b 2X+ kX",
"].r DXPXPXPXPXzXx.PXPXPXPXPXPXPXPXPXPXPXPXPXPXPXPXPXPXPXPXPXPXPXPXPXsXm.rXGXGXAXZXbXqXs.{.R.j j 5.m 0 3 > * : x 8.1 l 1 2 BX+ W.",
"q.A hXZ W l.zX{.8XPXPXPXPXPXPXPXPXPXPXPXPXPXPXPXPXPXPXPXPXPXPXPXPXLXPXrXm.:X=XtXc._.[ s.lXR.j h ~ a p 3 > > * s 2X1 o n >.PX2 ;.",
"J W PX).q.6 2.[.lXPXPXPXPXPXPXPXPXPXPXPXPXPXPXPXPXPXPXPXPXPXPXPXPXPXPXD.F.F..X-XtXXXa.E p.hXH R ~ a p i 3 > * < 7.NX3XLXJXPXs 1 ",
"Z 2.PX).A Z qXk.FXPXPXPXPXPXPXPXPXPXPXPXPXPXPXPXPXPXPXPXPXPXPXPXPXPX#XoX,XD..Xh.HXMX*X[ ! a.T i.m h g i i > : < 3.PXPXPXn 7.,.- ",
"r (.) q /.PXKXy.PXPXPXPXPXPXPXPXPXPXPXPXPXPXPXPXPXPXPXPXPXPXPXPXMXL.G.MXD.G.F.D.HXLXlX[ | E e.].T / g g i i > d 3.kX9.7.= 4.7.o ",
"w ).W t A W zXu.PXPXPXPXPXPXPXPXPXPXPXPXPXPXPXPXPXPXPXPXPXPXPX<XL.,X,XH.n.;Xn..X=X&XwXX.| [ 8Xs.2.h ~ m a p > d 5.W., 1 # 3.Q.o ",
"q ].PXlX}.).zXk.PXPXPXPXPXPXPXPXPXPXPXPXPXPXPXPXPXPXPXPXPXPXuX>XmX#XB.B.oXuXn.ZXF.h.h.X.[ _.s.8Xs.k T.h <.f 0 <.5.ZXPXPX:.x !.O ",
"q _.W Z G ) VXy.PXPXPXPXPXPXPXPXPXPXPXPXPXPXPXPXPXPXPXPXPXGXnXSXI.A.H.A.nX;X<XGXg.g.#.{ -X0X| IXR e.R.M 5.m T.fX<.DXPXPXkXNXQ.O ",
"w (.hX).).[.VXy.PXPXPXPXPXPXPXPXPXPXPXPXPXPXPXPXPXPXPXPXPXPXSXP.S.L.A.uXxXuXGX,X&.j.@.|.PXUX| 8Xa.DX/ R.i.AX^.M 5.DXPXPXPXPX7.o ",
"r /.PXPXPXPXFXy.LXPXPXPXPXPXPXPXPXPXPXPXPXPXPXPXPXPXPXPXPXGXH.P.L.S.sX<XiXLXAXG.n.$.=X&XtXPXc.| HXIX8XZX8X5.0 1.Y.KXPXPXLXPX3.# ",
"B 2.PXKXKXKXPXy.ZXLXPXPXPXPXPXPXPXPXPXPXPXPXPXPXPXPXPXPXPX>XC.P.A.sXsXA.<XPXOXN.M.:X,X-Xb.PXLX(.| ../ R j m ~.DXY.LXLXKXKXPX;.- ",
"J W PXPX).9XPXu.9Xu.PXPXPXPXPXPXPXPXPXPXPXPXPXPXPXPXPXPXSXC.C.H.mX<XA.A.>X>X-.oXxXOX$.xXj.=XPXPXUX{.).{.jXPXPXjXY.PXfXY.PXPXs 1 ",
"q.Z KXy.N Z }.).eXt.).PXLXPXPXPXPXPXPXPXPXPXPXPXPXPXPXPXrX=.U.nX$XS.L.A.A.H.uXsXG.N.&..XxX#. XLXPXPXPXPXPXLXwX^.{.4Xz 3 3.DX, x ",
").r GX9X8 r DXhX/.FXB ZXPXPXPXPXPXPXPXPXPXPXPXPXPXPXPXPX+XN.nXoXB.P.A.L.$XaX+XC.C.M.M.$.=XbXb.d.a.x.(.p.e.( 1.T.jXIXf * !.LX% 9.",
"VXw qXqX].).zXPXq.PXu.B DXPXPXPXPXPXPXPXPXPXPXPXPXPXPXPXF.uXJ.=.Z.L.$X,X$XL.I.OXG.M.M.m.%.F.xXtX&X`._.).{.{.qXT.LXDX^.2X5X7X& kX",
"PXZ r.PXPXPXJXPXk.9XPXW t lXPXPXPXPXPXPXPXPXPXPXPXPXPXLXbXOXV.+X>X<X>X@X@X1X@XA.@XH.M.M.m.$.#.f.c.XX_.E.y.( 1.{.PXKXPXPXPX<.3 PX",
"PX0.Z PXLXPXPXPXgXy.PX6XZ q /.PXPXPXPXPXPXPXPXPXPXLXLXPXPXxXpXrXSX<X>X$X@XA.@X1XI.C.M.n.m.g.g.#.@. .[ ! E | E.jXPXPXPXLXPXd :.PX",
"PXqX8 qXPXPXzXy.KXr.DXu.p.J 5 J {.PXFX(.w.} } +.#.f.g.g.g.&.V.oXoXH.B.B.I.<X<XL.A.A.J.H.N.m.g.f.f.X.X. .[ p.].PXPXPXPXPXgX> 5XPX",
"PXPXy 0.PXPXZXJ Z )./.ZXZ hXJ u e ! '.hXbXyXz.+.] ` ] O.%.|.;XV.=.=.L.aXvX$XS.A.A.$X;XM.V.V.m.g.f.#.X.| X.R.lXwXDXPXPXPX5.f PXPX",
"PXPXu.r KXPXDXt.6 k.y.zXr.Z FX_ q y y I l.yXGXPXLXbX=X X=XD.%.n.oXsXFX<XP.S.A.L.<X#XA.C.N.J.V.g.g.#.#.X.'.8X_.H / R.DXPXp T.PXPX",
"PXPXDX9 /.wX8 N /.PXzX2.LXr G KX).r y C C C U +.v.yXPXLX:X;X;X:XPXbXJ.-.Z.H.<XLX$XA.U.N.oXF.V.g.g.f.@.c.*XtXq.E./ j eX^.a DXPXPX",
"PXPXPXr.t zX].LXPX{.{.].(.hX6 V lXZX_ y y S I I I ' +.v.|.b.OXFX.X*.*.H.>XSXPXsXA.P.Z.#X#XV.N.m.D.#.b.&XlXa.p.y.{./ DXh i.PXLXPX",
"PXPXPXDXw r.PXPX2.7 8 /.u.qX).6 q q.ZXyXw.U F F I I ' ] #.rXAXD.$.OXaXmXcX#XxXL.S.A.>XnXA.C.M.oXn.g.;X0XGXa.[ y.q.{.R.H JXPXPXPX",
"PXPXPXPXE.7 ZXR.5 yXqXt eX2.lXt.5 q t w.9XbXlXyXyXyXxXLXPXPXtXrXxXiXOXV.=.>X@XB.A.dXSX1XM.C.OXM.V.;X=XAXh.0X0X[ e.ZXH ].PXPXPXPX",
"PXPXPXLXPXZ G lXr gXPXG J PX) zXy.7 w e e Y [ l.'.`.'.|.`.'.D.j.$.%.&.=.,X<X-.@XsXdXvXS.A.#XJ.C.;X,XIXPX-X .wXDXAXe.2.PXPXPXPXPX",
"PXPXLXPXPXzX7 /./.r J 9 }.jXZX2.9X).w w y C y C F F I I ` ] o.O.%.%.%.;XpXN.,XsX@XmX<XB.>X#XH.,X,XHXIXPXPX=X[ LX&X! ZXPXPXPXPXPX",
"PXPXPXPXPXPX).6 *Xy.Z zXu.6 Z tXy.).zXW e e y D D U U ] ] o.+.o.O.$.uXLX;XiX>XB.mXSXB.1XsX@XiXuXPX;Xm.GXPXb.&XxX[ 0XPXPXPXPXPXPX",
"PXPXPXPXPXPXPX0.7 gXPX).7 }.y.r lX).r.zXzXq.J C C F F F I ' ] d.-XLXPXAX;XN.=.MXPXuX<XPXsXuXMXLXPXGXF.m.D.v.bXX. XPXPXPXPXPXPXPX",
"PXPXPXPXPXPXPXPXW q VXy.w LXPXZ J PXUXy./.FXPXbX[.l.x.`.-XrXZXPXLXtXF.$.*.M.HXSX>XmXSXaXdXSXSXPXPXPXPX;X.XAX#.c.PXPXPXPXPXPXPXPX",
"PXPXPXPXPXPXPXLXPXJ q qX_ Z _ q qX_ G {.9Xt.y.zXPXZX[.[.&X`.b.#.o.] O.%..XHXbXJ.OX>XdXAXLXSXA.vXPXSX,XPXFX$.F.PXPXPXPXPXPXPXPXPX",
"PXPXPXPXPXPXPXPXPXPXW q 6Xy.w 8X).9 q.t Q DXzX).k.'._.x.d.+.{ +.f.v.;XpXbX;XoX,XsXHXMX$XA.cX<XP.aXM.,XxXN..XPXPXPXPXPXPXPXPXPXPX",
"PXPXPXPXPXPXPXPXPXLXPX) 5 p.PXPXr ) PXzX7 (.k.k.yXlX9X[.&X[.`.`.&X-XrXrXrXxXAXLXPX>XH.aXvXSXLX%XH.nXsXN.;XPXPXPXPXPXPXPXPXPXPXPX",
"PXPXPXPXPXPXPXPXPXPXPXPXR.8 G zXu.r k.2.N qXq J W Q lXZXyXlXbXZXFXAXxXtXpXGXPXPXPXN.iXPXLXU.sXPXMX#XC.pXPXPXPXPXPXPXPXPXPXPXPXPX",
"PXPXPXPXPXPXPXPXPXPXPXPXPXzXG 8 k.}.J 7 ].k.r _ q.C y._.U U } +.xXj.+.j.O.F.PXPXPX,XC.iXI.$XGXdXA.%XSXPXPXPXPXPXPXPXPXPXPXPXPXPX",
"PXPXPXPXPXPXPXPXPXPXPXPXPXPXPXu.w B (.ZXPXJ t y.q.y tXPXPXU `.FXzX] xXPXLXxXPXPXPXLXoX+XsXcXI.P.aXPXPXPXPXPXPXPXPXPXPXPXPXPXPXPX",
"PXPXPXPXPXPXPXPXPXPXPXPXPXPXPXPXCX2.q t r.].k.W G V zXPXDXY tXPXKX] `.bXF.$.PXPXPXPXFXuXH.S.<XLXPXPXPXPXPXPXPXPXPXPXPXPXPXPXPXPX",
"PXPXPXPXPXPXPXPXPXPXPXPXPXPXPXIXPXPXAXt.t r J k.).tXPXPXFX[ ZXPXPX`.+.j.b.tXPXxX:XD.-.V.uXGXPXPXPXPXPXPXPXPXPXPXPXPXPXPXPXPXPXPX",
"PXPXPXPXPXPXPXPXPXPXPXPXPXPXPXPXPXPXPXPXPX8X_ N r y J ) k._.*XyXyXyX&X[.v.j.@.%.g.OXnXLXPXPXPXPXPXPXPXPXPXPXPXPXPXPXPXPXPXPXPXPX",
"PXPXPXPXPXPXPXPXPXPXPXPXPXPXPXPXPXPXPXPXPXPXPXPXzX/.) J C V C C F I ` } f.v.rXZXPXPXPXPXPXPXPXPXPXPXPXPXPXPXPXPXPXPXPXPXPXPXPXPX"
};
