/* XPM */
static char *_e0911d31d74407cb2502dc64f7dd2cc[] = {
/* columns rows colors chars-per-pixel */
"32 32 206 2 ",
"   c #885C25",
".  c #90672B",
"X  c #8B6139",
"o  c #91693B",
"O  c #97703B",
"+  c #9B743A",
"@  c #9F7A42",
"#  c #9D794A",
"$  c #9F7D5A",
"%  c #A07F5D",
"&  c #C59D2E",
"*  c #C59D39",
"=  c #CAA434",
"-  c #CBA539",
";  c #A48141",
":  c #A4834E",
">  c #AA8948",
",  c #AE9143",
"<  c #AD8F5C",
"1  c #AF9253",
"2  c #B39553",
"3  c #B89E5B",
"4  c #BDA25D",
"5  c #A48665",
"6  c #A88865",
"7  c #A68969",
"8  c #AA8C6D",
"9  c #AC8F71",
"0  c #AF9679",
"q  c #B09679",
"w  c #B1987A",
"e  c #BFA760",
"r  c #CAA649",
"t  c #CBA84A",
"y  c #D2B147",
"u  c #CCAB55",
"i  c #CDAE5C",
"p  c #CFB15E",
"a  c #D5B953",
"s  c #D8BC52",
"d  c #D1B35D",
"f  c #D5B95E",
"g  c #C3AB61",
"h  c #C3AD6C",
"j  c #CFB163",
"k  c #D1B56A",
"l  c #D2BD6B",
"z  c #CAB674",
"x  c #CAB67E",
"c  c #CCBB7B",
"v  c #D4BB75",
"b  c #D6BD7A",
"n  c #D8BE7E",
"m  c #DCC355",
"M  c #E1CC5E",
"N  c #DCC362",
"B  c #D9C76D",
"V  c #DAC577",
"C  c #DDC976",
"Z  c #DAC37C",
"A  c #DCC97A",
"S  c #EADB75",
"D  c #E5D47A",
"F  c #E9DB7C",
"G  c #EEE178",
"H  c #B59D82",
"J  c #B9A185",
"K  c #BAA48A",
"L  c #BFAB8B",
"P  c #BEA990",
"I  c #C2AE87",
"U  c #C4AF89",
"Y  c #C4B28D",
"T  c #C9B68B",
"R  c #CBBA8D",
"E  c #C2AE96",
"W  c #C2AF9A",
"Q  c #C3B092",
"!  c #CCBC95",
"~  c #C9B898",
"^  c #D0BF97",
"/  c #C8B7A1",
"(  c #CBBBA4",
")  c #CBBCA9",
"_  c #D7C282",
"`  c #D9C284",
"'  c #DACA85",
"]  c #D2C38D",
"[  c #DAC58B",
"{  c #DDCA8C",
"}  c #D4C494",
"|  c #DDCB93",
" . c #DCCC9B",
".. c #E4D383",
"X. c #EADC83",
"o. c #E4D58D",
"O. c #E4D888",
"+. c #E8DC89",
"@. c #E1CF96",
"#. c #E1CE9A",
"$. c #E5D494",
"%. c #E9DB95",
"&. c #E2D49D",
"*. c #E7DE9D",
"=. c #E8DA9C",
"-. c #EDE486",
";. c #EFE389",
":. c #F0E78C",
">. c #F5EC8B",
",. c #F7F08A",
"<. c #F8F08F",
"1. c #EDE393",
"2. c #EDE59C",
"3. c #EFE89C",
"4. c #F0E692",
"5. c #F3EC94",
"6. c #F0E79B",
"7. c #F3EC9B",
"8. c #F7F195",
"9. c #F6F09E",
"0. c #D4C7A2",
"q. c #D5C9A6",
"w. c #DACDA3",
"e. c #D3C6AF",
"r. c #DDD2A4",
"t. c #DED3A8",
"y. c #D2C6B5",
"u. c #D6CBBC",
"i. c #D9CEBD",
"p. c #DDD2B6",
"a. c #DDD2BB",
"s. c #E3D3A4",
"d. c #E3D9A5",
"f. c #E9DBA3",
"g. c #E3D5AA",
"h. c #E5DAA9",
"j. c #EADCAB",
"k. c #E5DAB2",
"l. c #E9DDB4",
"z. c #E4DBBB",
"x. c #E9DEBC",
"c. c #ECE5A6",
"v. c #ECE3AC",
"b. c #EEE9AF",
"n. c #F3ECA5",
"m. c #F3EDAB",
"M. c #F6F1A4",
"N. c #F8F4A5",
"B. c #F6F2AC",
"V. c #F8F4AA",
"C. c #ECE3B4",
"Z. c #EDE8B4",
"A. c #EBE3BB",
"S. c #EFE9BF",
"D. c #F0E7B3",
"F. c #F2EBB5",
"G. c #F3EDBC",
"H. c #F6F1B2",
"J. c #F8F5B5",
"K. c #F6F2BA",
"L. c #F8F4BD",
"P. c #D9CFC1",
"I. c #DBD1C2",
"U. c #DED4C9",
"Y. c #E0D6C4",
"T. c #E5DDC2",
"R. c #E3DBCC",
"E. c #E5DDD2",
"W. c #EBE3C4",
"Q. c #EEE8C5",
"!. c #EDE5CC",
"~. c #EDE9CD",
"^. c #F2EDC3",
"/. c #F0E6CD",
"(. c #F2EDCA",
"). c #F6F3C4",
"_. c #F9F6C4",
"`. c #F6F2CE",
"'. c #F9F7CB",
"]. c #FAF9CE",
"[. c #EDE5D2",
"{. c #EEE9D4",
"}. c #E7E0D8",
"|. c #EBE5DB",
" X c #EDE9DE",
".X c #F1ECD5",
"XX c #F3EEDC",
"oX c #F5F2D2",
"OX c #F9F6D2",
"+X c #F9F8D4",
"@X c #F6F4DD",
"#X c #F8F6DD",
"$X c #FAF9DC",
"%X c #EDEAE4",
"&X c #F0EDE1",
"*X c #F6F3E4",
"=X c #F8F6E1",
"-X c #FAF9E5",
";X c #F5F2EA",
":X c #F9F6EC",
">X c #F7F8E8",
",X c #FBFAEC",
"<X c #F6F5F1",
"1X c #F9F7F3",
"2X c #FBFAF4",
"3X c #FEFEFE",
/* pixels */
"3X3X3X3X3X3X3X3X3X3X,X(.Z.h.r. .] T U L )  X3X3X3X3X3X3X3X3X3X3X",
"3X3X3X3X3X3X3X3X-XL.K.^.oXS.S.3X<XT.a.a.L w J E.3X3X3X3X3X3X3X3X",
"3X3X3X3X3X3X2X_.L.$XL.].oXG.j.*X3X} x T a.Q J 7 H <X3X3X3X3X3X3X",
"3X3X3X3X3X-XB.].].].=X).,Xb.Z..XXXz.z.q.a.: Q 3X) 7 }.3X3X3X3X3X",
"3X3X3X3X#Xn.=XOX9.'.,X`.@X:X3X2X2XW.{.&Xa.~ E.3X%X0 $ U.3X3X3X3X",
"3X3X3X*X2.@Xv.-X).+X-X3X3X3X3X3XXX*X} 2X3X%Xi.<Xy.5 P.5 E.3X3X3X",
"3X3X2X%.@X#XF.).-X3X3X3X3X3X3X3XQ.k.t.} ;X3X1Xu.) <XK K 5 <X3X3X",
"3X3Xf.v.=.j.-X#X3X_.L.$X3X3X3X3X2XA | c 3 p.3X3XR.y.7 % W H 3X3X",
"3X.X$.Q.C D.`.3Xn.B.L.8.$X3X3X3XoXQ.*XW.g , |.3X1X) y.J u.7 U.3X",
"3X@.h.x.j.S.3X-XS K.+XV.B.3X3X,X+.c.(.{.~.x ! 3X1XX P K y.U.0 3X",
"XX{ { &.@.:X3X:XS K.).J.J.3X,Xm.Z.oX:X2X3XT.3 T.3XO o K K y.0 }.",
"s.g.XX{ l.3X3X3XG.1.n.9.,X3XN.5.3.G.3X*XQ. .e R ;X@   P E K K / ",
"n W.3X:X/.3X3X3X3X=XOX2X3X3X-X2X,Xc.@X(.d.| r.e R @ . 6 0 X H H ",
"b x.k s.;X3X3X3X3X3X3X3X3X3X3X3X3X`.3.^.A.' k.h 4 > + # / ) E.7 ",
"b { ` x.:X3X3X3X3X3X3X3X3X3X3X3X+Xm.3.*.>X&.l ] h 2 ; + P.E.K 9 ",
"v ` [ W.1X3X3X3X3X3X3X3X3X3X3XOXB.8.3.m.Z.o.V k.z h 1 < e./ H 9 ",
"v g.#.T.1X3X3X3X3X3X3X3X3X3X3X'.<.M.].oXF O.(.&.k.0.0.! Y.3X<X9 ",
"b 3X3X!.*X3X3X3X3X3X3X3X3X3X-X,.N.J.$Xm.1.Z.@XA.h.r.^ ^ E.3X3X8 ",
"b /.` W.s.*X3X3X3X3X3X3X3X3Xm.9.J.,.M.B.3.3.Z.-X.X~.&X{.R.Y R.9 ",
"` k.b /.x.| 1X3X3X3X3X3X3X2Xm.n.,.M.B.M.:.-.c.j.C.z.t.q. XL e.J ",
"#.g.3X1X/.z.j XX3X2X1X,X2X2X`.m.).N.9.N.5.:.X.+.o.' c z.3X3Xe.( ",
"XXb 3Xz.` T.b r [ Q.l.%...D 4.6.4.M.J.8.8.7.;.X.D B ' ~.2X3XT  X",
"3X` x.n #.[.[ | d - V f.S.(.c.6._.B.8.J.B.>.5.;.X...A.| ] T.^ 3X",
"3X/.k ;Xs.[ k.u [ @.f a N o.D.`.c.M._.].,.B.7.:.X.Z.A.' w.] {.3X",
"3X3X[ | _ [ s.z.* t { s.j.D.`.v.6.1.B.8.K.L.<.5.b.*Xv.l.h.h.3X3X",
"3X3X:Xk [ ` [ #.k.p & = y s m M S G.K.n.+XB.B.L.`.$X(.C.d.<X3X3X",
"3X3X3X/.k z.` ` g.W.k.#.V C o.v.`.G.4.'.OX+XOX-X3XF.Z.*.@X3X3X3X",
"3X3X3X3XW.p ` [ _ _ g.XX.Xl.f.$.D %.^.K._.'.'.L.OXOXm.@X3X3X3X3X",
"3X3X3X3X3X.Xk g.[  .k Z @.l.j.l.(.^.(.2X'.L.+X].B.m.-X3X3X3X3X3X",
"3X3X3X3X3X3X:X` j b s.i d W.o.j.v.D.^.3X,XH.K.K._.2X3X3X3X3X3X3X",
"3X3X3X3X3X3X3X3X/.| v v b 2Xj.*X(.c.D.#X`.H.L.-X3X3X3X3X3X3X3X3X",
"3X3X3X3X3X3X3X3X3X3XXXs.[ b Z { $...%.v.G.,X3X3X3X3X3X3X3X3X3X3X"
};
